# xmcd CD database file
#
# Track frame offsets:
#	183
#	12455
#	26428
#	45143
#	65263
#	80813
#	95553
#	105598
#	120848
#	131745
#	146920
#	160610
#	180935
#
# Disc length: 2625 seconds
#
# Revision: 0
# Processed by: cddbd v1.5.1PL0 Copyright (c) Steve Scherf et al.
# Submitted via: CDex 1.50beta10
#
DISCID=9c0a3f0d
DTITLE=Clarence Edwards and Oscar "Harp" Davis - Louisiana Swamp Blues Vol. 4
DYEAR=1993
DGENRE=Blues
TTITLE0=Driving Wheel
TTITLE1=Cold Black Mare
TTITLE2=Hi Heel Sneakers
TTITLE3=Pointy Brown
TTITLE4=Don't Play With My Mistakes
TTITLE5=I'm So Glad
TTITLE6=Free Will
TTITLE7=Up's and Down's
TTITLE8=Don't Got Over
TTITLE9=Awful Blues
TTITLE10=Stack O'Dollars
TTITLE11=Caress Me Baby (Oscar Davis)
TTITLE12=Down In Virginia (Oscar Davis)
EXTD=YEAR: 1993
EXTT0=
EXTT1=
EXTT2=
EXTT3=
EXTT4=
EXTT5=
EXTT6=
EXTT7=
EXTT8=
EXTT9=
EXTT10=
EXTT11=
EXTT12=
PLAYORDER=
